<?xml version="1.0" encoding="UTF-8"?>
<svg version="1.1" xmlns="http://www.w3.org/2000/svg" width="2048" height="2048">
<path d="M0 0 C1.87174896 -0.01058945 1.87174896 -0.01058945 3.78131104 -0.02139282 C7.78393709 -0.03889992 11.78640618 -0.04608477 15.7890625 -0.046875 C16.47188042 -0.04716957 17.15469833 -0.04746414 17.8582077 -0.04776764 C38.51661978 -0.04920704 58.93668171 0.15135037 79.4140625 3.203125 C80.10340881 3.3049408 80.79275513 3.40675659 81.50299072 3.51165771 C172.3045618 17.0123677 256.86976257 54.30097046 327.4140625 113.203125 C327.99526855 113.68523437 328.57647461 114.16734375 329.17529297 114.6640625 C336.62747687 120.84965281 343.84352441 127.25084843 350.93896484 133.84130859 C352.39656297 135.18696936 353.86814612 136.51743022 355.33984375 137.84765625 C365.19974329 146.76727398 374.9880775 155.93264272 383.5859375 166.09375 C385.57558115 168.38949267 387.63638483 170.60615748 389.71044922 172.82543945 C395.55331988 179.08126896 401.07440511 185.50836127 406.4140625 192.203125 C407.3233288 193.32103694 408.2335341 194.4381856 409.14453125 195.5546875 C424.104328 213.95709431 437.46238408 233.35856147 450.4140625 253.203125 C451.44877686 254.7809375 451.44877686 254.7809375 452.50439453 256.390625 C453.14618652 257.380625 453.78797852 258.370625 454.44921875 259.390625 C455.30785522 260.71126953 455.30785522 260.71126953 456.18383789 262.05859375 C457.4140625 264.203125 457.4140625 264.203125 457.4140625 266.203125 C458.0740625 266.203125 458.7340625 266.203125 459.4140625 266.203125 C459.65253906 265.52894531 459.89101562 264.85476563 460.13671875 264.16015625 C461.71096 260.51581183 463.73267425 257.23436788 465.8515625 253.890625 C466.2940332 253.1891333 466.73650391 252.4876416 467.19238281 251.76489258 C481.7697007 228.82584895 498.12678071 206.94324467 515.79296875 186.296875 C518.24914268 183.41802737 520.61402803 180.47190715 522.9765625 177.515625 C526.67024525 172.96955392 530.63825736 168.84282995 534.859375 164.78515625 C536.91203525 162.71052563 538.81879889 160.61291416 540.72265625 158.40625 C544.4247303 154.13497207 548.34441892 150.12458356 552.3515625 146.140625 C553.01607422 145.47224609 553.68058594 144.80386719 554.36523438 144.11523438 C558.30036796 140.18773441 562.34523138 136.44923494 566.55444336 132.81762695 C569.16954814 130.54722024 571.69240939 128.18860888 574.2265625 125.828125 C579.77253835 120.71741841 585.49688912 115.8808081 591.4140625 111.203125 C592.05585449 110.69410645 592.69764648 110.18508789 593.35888672 109.66064453 C664.85214125 53.09691232 747.08260154 16.41688079 837.4140625 3.203125 C838.63109863 3.02233398 839.84813477 2.84154297 841.10205078 2.65527344 C880.64155868 -2.88852377 923.91096215 -2.23551541 963.4140625 3.203125 C965.3623999 3.46053467 965.3623999 3.46053467 967.35009766 3.72314453 C1014.82337916 10.06777806 1060.83237442 23.33272493 1104.4140625 43.203125 C1105.29513672 43.60112305 1106.17621094 43.99912109 1107.08398438 44.40917969 C1143.84129958 61.09344804 1177.98486338 83.34079152 1208.55859375 109.65112305 C1209.92163425 110.79123468 1211.30812108 111.90346454 1212.70703125 112.99926758 C1220.73995011 119.3464407 1227.90540689 126.42249843 1235.10400391 133.68725586 C1237.16903574 135.77064244 1239.24205646 137.84581665 1241.31640625 139.91992188 C1242.65672366 141.26515324 1243.99658341 142.61084077 1245.3359375 143.95703125 C1245.94338806 144.56559464 1246.55083862 145.17415802 1247.17669678 145.80116272 C1271.15779525 170.04396706 1291.43192338 198.71018801 1308.4140625 228.203125 C1308.79739746 228.86683105 1309.18073242 229.53053711 1309.57568359 230.21435547 C1340.73538805 284.46665071 1360.19275576 343.58429549 1368.6640625 405.578125 C1368.81520508 406.67962891 1368.96634766 407.78113281 1369.12207031 408.91601562 C1369.60401801 412.67368456 1370.02511739 416.43494732 1370.4140625 420.203125 C1370.5015979 421.03532562 1370.5891333 421.86752625 1370.67932129 422.72494507 C1372.53399897 440.96403062 1372.73808377 459.1318997 1372.67201233 477.44165802 C1372.66394062 479.80125423 1372.65898961 482.16084094 1372.65466309 484.52044678 C1372.60418248 508.46185594 1372.23418344 532.32250892 1370.4140625 556.203125 C1370.35089844 557.05861938 1370.28773437 557.91411377 1370.22265625 558.79553223 C1363.84276356 645.18600318 1347.69621721 730.94665544 1205.90234375 981.3828125 C1204.59996871 982.97574365 1203.30340218 984.5734202 1202.0078125 986.171875 C1193.5156156 996.63327697 1184.74395559 1006.83570591 1175.63671875 1016.765625 C1173.73984486 1018.84585225 1171.88013307 1020.94869398 1170.0390625 1023.078125 C1166.07202636 1027.63698006 1161.96683884 1032.0671061 1157.85513306 1036.49499512 C1155.64111307 1038.87964302 1153.43055177 1041.26741569 1151.22250366 1043.65759277 C1143.06047406 1052.47116658 1134.70455146 1061.06133756 1126.203125 1069.546875 C1124.89693962 1070.853737 1123.59090246 1072.16074714 1122.28500366 1073.46789551 C1119.57915022 1076.17520545 1116.87154217 1078.88074404 1114.16259766 1081.58496094 C1110.7098711 1085.03195104 1107.26170996 1088.48346798 1103.81482887 1091.93630219 C1101.13133991 1094.62341843 1098.44545707 1097.30813176 1095.75886154 1099.99214172 C1094.48641203 1101.26393003 1093.21468856 1102.53644523 1091.94374466 1103.80973816 C1080.01657144 1115.75414887 1080.01657144 1115.75414887 1073.95492554 1120.88244629 C1071.64443579 1122.86277455 1069.53574284 1125.02410194 1067.4140625 1127.203125 C1063.93653585 1130.77463886 1060.30484926 1134.06725312 1056.54199219 1137.32910156 C1052.95542767 1140.48771437 1049.50405191 1143.78743482 1046.0390625 1147.078125 C1040.68660787 1152.13897471 1035.30888977 1157.15798929 1029.80859375 1162.05859375 C1026.94510709 1164.62311932 1024.11716375 1167.22472702 1021.2890625 1169.828125 C1017.39750332 1173.40659834 1013.46724821 1176.93144425 1009.47265625 1180.39453125 C1006.924496 1182.6332375 1004.41995657 1184.91722712 1001.9140625 1187.203125 C998.12743252 1190.65640653 994.3092993 1194.06411551 990.44140625 1197.42578125 C988.07917077 1199.49671987 985.74610397 1201.59825348 983.4140625 1203.703125 C978.06616264 1208.52433775 972.67104035 1213.28206527 967.19140625 1217.953125 C961.63283771 1222.69391823 956.10468276 1227.44398717 950.7265625 1232.390625 C947.25269941 1235.58049344 943.71496225 1238.62361394 940.0390625 1241.578125 C935.2434576 1245.44466684 930.74527583 1249.55164483 926.25268555 1253.7590332 C922.03995127 1257.68205224 917.65001797 1261.32216219 913.16015625 1264.92578125 C910.15087103 1267.42139047 907.27469228 1270.04079305 904.4140625 1272.703125 C899.80407307 1276.99272907 895.03622734 1281.00723622 890.12890625 1284.95703125 C887.30732755 1287.2914309 884.60815538 1289.72303098 881.9140625 1292.203125 C878.35736006 1295.47730923 874.74244439 1298.60954933 870.9765625 1301.640625 C866.98182264 1304.86255601 863.16851901 1308.20967995 859.4140625 1311.703125 C854.80401914 1315.99267613 850.03623294 1320.00723172 845.12890625 1323.95703125 C842.30732755 1326.2914309 839.60815538 1328.72303098 836.9140625 1331.203125 C833.35736006 1334.47730923 829.74244439 1337.60954933 825.9765625 1340.640625 C821.98182264 1343.86255601 818.16851901 1347.20967995 814.4140625 1350.703125 C809.80401914 1354.99267613 805.03623294 1359.00723172 800.12890625 1362.95703125 C796.34696771 1366.08597321 792.7665038 1369.41829945 789.15625 1372.7421875 C786.51390367 1375.11352395 783.80712083 1377.35565497 781.0390625 1379.578125 C776.2426554 1383.44531363 771.7436479 1387.55293216 767.25048828 1391.76123047 C763.06094683 1395.6629503 758.69242425 1399.27629987 754.2265625 1402.859375 C750.43242121 1406.02115941 746.85122485 1409.38857864 743.24780273 1412.76391602 C739.9225145 1415.86092584 736.52686311 1418.79934184 732.9765625 1421.640625 C727.95484025 1425.66823629 723.28823489 1429.99658356 718.60571289 1434.40600586 C715.14327406 1437.64875761 711.62110274 1440.73749281 707.9140625 1443.703125 C702.22270607 1448.25957284 696.94993968 1453.21104721 691.63671875 1458.1953125 C688.59611919 1461.0453807 685.49057826 1463.80801311 682.3359375 1466.53125 C680.00301176 1468.56070573 677.70895005 1470.630772 675.4140625 1472.703125 C672.45536499 1475.37360844 669.48479778 1478.02610558 666.4765625 1480.640625 C662.28103029 1484.29370456 658.18032697 1488.04818049 654.0703125 1491.796875 C651.24683581 1494.35461271 648.38350248 1496.86082469 645.5078125 1499.359375 C641.9859378 1502.46072735 638.53329228 1505.63825833 635.06640625 1508.80078125 C632.88945254 1510.77254344 630.69567576 1512.71677837 628.4765625 1514.640625 C624.58003975 1518.02717341 620.78053422 1521.51650495 616.98120117 1525.01098633 C611.36016757 1530.17915302 605.67691455 1535.27708348 599.9921875 1540.375 C593.94082932 1545.80965926 587.93570988 1551.2932369 581.94628906 1556.79589844 C579.43729138 1559.10021052 576.92555782 1561.40153591 574.4140625 1563.703125 C573.41404898 1564.61977692 572.41404899 1565.5364436 571.4140625 1566.453125 C565.4140625 1571.953125 565.4140625 1571.953125 563.91430664 1573.32788086 C562.91346582 1574.24533185 561.91265205 1575.16281236 560.91186523 1576.08032227 C558.42494989 1578.36023051 555.93757935 1580.63963793 553.44921875 1582.91796875 C542.91871489 1592.56125557 532.42723991 1602.24484852 521.99633789 1611.99584961 C518.02522562 1615.70605986 514.03847629 1619.39846447 510.0390625 1623.078125 C502.85276322 1629.69556448 495.74915621 1636.40019375 488.64306641 1643.10351562 C486.37589212 1645.23907958 484.10456169 1647.37013747 481.83203125 1649.5 C481.08147461 1650.20415039 480.33091797 1650.90830078 479.55761719 1651.63378906 C478.13861561 1652.96484897 476.71876258 1654.29500205 475.29785156 1655.62402344 C471.16003448 1659.50896259 467.16719497 1663.48608378 463.27563477 1667.61914062 C461.25883591 1669.33520502 460.04057611 1669.95762501 457.4140625 1670.203125 C455.15234375 1668.6484375 455.15234375 1668.6484375 452.7265625 1666.328125 C451.84871094 1665.49796875 450.97085938 1664.6678125 450.06640625 1663.8125 C446.8741494 1660.67195865 443.70685145 1657.5087952 440.5625 1654.3203125 C437.95977327 1651.75544361 435.21845083 1649.39260071 432.4453125 1647.015625 C429.37431933 1644.27535417 426.52619374 1641.32365598 423.63671875 1638.39453125 C420.9870481 1635.78211432 418.20233447 1633.37009879 415.37890625 1630.94921875 C412.68027889 1628.55103499 410.17091675 1625.98700976 407.6640625 1623.390625 C405.71588935 1621.49656777 403.72691923 1619.71362305 401.67578125 1617.93359375 C397.41956002 1614.23633984 393.31578663 1610.39573028 389.2265625 1606.515625 C382.5197526 1600.17767501 375.77237683 1593.88799926 368.97900391 1587.64306641 C366.81531894 1585.65220619 364.65618841 1583.65643502 362.49682617 1581.66088867 C356.31459124 1575.94835314 350.11515781 1570.25485363 343.90673828 1564.57080078 C342.38591374 1563.17733348 340.86658926 1561.78224749 339.34765625 1560.38671875 C334.74332302 1556.15789024 330.13129655 1551.93909414 325.4765625 1547.765625 C321.54579284 1544.23995881 317.66191868 1540.66701979 313.7890625 1537.078125 C309.77027558 1533.35501546 305.71516474 1529.69221337 301.5703125 1526.109375 C298.64165737 1523.52027409 295.78012587 1520.86113159 292.9140625 1518.203125 C288.78265285 1514.37265172 284.62296496 1510.59049757 280.36328125 1506.90234375 C275.46057947 1502.6284454 270.66294084 1498.23393029 265.8359375 1493.875 C262.071054 1490.47967562 258.30212699 1487.09254158 254.4765625 1483.765625 C251.24846738 1480.95489975 248.07667807 1478.087326 244.9140625 1475.203125 C239.42948828 1470.20623522 233.88137419 1465.29999434 228.23046875 1460.4921875 C221.38985816 1454.6664817 214.67019691 1448.74531564 208.0703125 1442.6484375 C203.53895573 1438.47692377 198.88575741 1434.45633006 194.19921875 1430.4609375 C192.99984841 1429.43767765 191.80063433 1428.41423463 190.6015625 1427.390625 C189.99546143 1426.87338867 189.38936035 1426.35615234 188.76489258 1425.82324219 C185.02354709 1422.6182312 181.3529932 1419.35110997 177.7265625 1416.015625 C174.25269941 1412.82575656 170.71496225 1409.78263606 167.0390625 1406.828125 C162.2434576 1402.96158316 157.74527583 1398.85460517 153.25268555 1394.6472168 C149.03995127 1390.72419776 144.65001797 1387.08408781 140.16015625 1383.48046875 C137.15087198 1380.98486031 134.27467596 1378.36547357 131.4140625 1375.703125 C127.68078995 1372.22893257 123.89035139 1368.9024379 119.9140625 1365.703125 C115.93776824 1362.50380778 112.14737952 1359.17727555 108.4140625 1355.703125 C103.80404611 1351.4135474 99.03623014 1347.39901603 94.12890625 1343.44921875 C90.34838964 1340.32145321 86.76925375 1336.99038617 83.16015625 1333.66796875 C80.49531084 1331.27605203 77.76574425 1329.01057616 74.9765625 1326.765625 C70.44170089 1323.10806236 66.15870067 1319.25695473 61.89697266 1315.29150391 C57.78626974 1311.48913693 53.49130666 1307.96041908 49.12890625 1304.44921875 C45.34838964 1301.32145321 41.76925375 1297.99038617 38.16015625 1294.66796875 C35.49531084 1292.27605203 32.76574425 1290.01057616 29.9765625 1287.765625 C25.44089807 1284.10741485 21.1570508 1280.25569535 16.89477539 1276.28930664 C13.66212275 1273.298855 10.34709484 1270.46533493 6.9140625 1267.703125 C2.39628437 1264.06813111 -1.86412266 1260.2360221 -6.10546875 1256.2890625 C-9.33805497 1253.29871142 -12.65299616 1250.46526171 -16.0859375 1247.703125 C-21.19839735 1243.58659889 -26.01170304 1239.2108366 -30.82421875 1234.75390625 C-35.37345014 1230.55214091 -40.04960834 1226.50869987 -44.765625 1222.49609375 C-51.10000229 1217.10059942 -57.356078 1211.6487938 -63.46557617 1205.99926758 C-66.77040915 1202.94331091 -70.12662453 1199.95995142 -73.52734375 1197.01171875 C-77.04036052 1193.9253302 -80.47893568 1190.75683722 -83.93359375 1187.60546875 C-86.11054746 1185.63370656 -88.30432424 1183.68947163 -90.5234375 1181.765625 C-94.47339011 1178.33476267 -98.3178085 1174.79182229 -102.16601562 1171.24804688 C-104.9204951 1168.71587092 -107.69327537 1166.21284765 -110.5234375 1163.765625 C-115.19038272 1159.71707418 -119.7030408 1155.50339903 -124.234375 1151.3046875 C-127.29803359 1148.46601359 -130.37765063 1145.64546799 -133.4609375 1142.828125 C-138.12416682 1138.55504634 -142.76857805 1134.2623412 -147.3984375 1129.953125 C-148.00864746 1129.38674316 -148.61885742 1128.82036133 -149.24755859 1128.23681641 C-152.23530338 1125.45058391 -155.16868253 1122.62984757 -158.03515625 1119.71875 C-160.24831354 1117.48581761 -162.50733925 1115.39210195 -164.91308594 1113.36987305 C-171.55603773 1107.58592651 -177.68282182 1101.24979167 -183.90234375 1095.01953125 C-185.28647031 1093.6360796 -186.67074518 1092.25277632 -188.05516052 1090.86961365 C-190.94554592 1087.98069638 -193.8341309 1085.08999424 -196.72143555 1082.19799805 C-200.40517795 1078.50855892 -204.09339238 1074.82362824 -207.7829752 1071.14003086 C-210.63910043 1068.28753518 -213.49281988 1065.43264223 -216.34583855 1062.57703972 C-217.70414982 1061.21806579 -219.06319203 1059.85982201 -220.42300606 1058.50235176 C-227.02733348 1051.90691372 -233.5494181 1045.32995857 -239.5859375 1038.203125 C-240.88762505 1036.7868606 -242.19776622 1035.37821537 -243.5234375 1033.984375 C-244.52503906 1032.92669922 -244.52503906 1032.92669922 -245.546875 1031.84765625 C-246.21976563 1031.13996094 -246.89265625 1030.43226562 -247.5859375 1029.703125 C-252.71543267 1024.30831111 -257.72851674 1018.84465771 -262.5859375 1013.203125 C-263.07368652 1012.63754883 -263.56143555 1012.07197266 -264.06396484 1011.48925781 C-265.46999852 1009.85465229 -266.87246132 1008.21706661 -268.2734375 1006.578125 C-271.38617391 1002.9368293 -274.50029205 999.29723782 -277.640625 995.6796875 C-284.01376714 988.32439365 -290.13950499 980.82275322 -296.09375 973.125 C-297.69668535 971.06048641 -299.31225808 969.00630024 -300.9296875 966.953125 C-309.0963759 956.5630927 -316.93878369 945.98019298 -324.5859375 935.203125 C-325.15844238 934.40116699 -325.73094727 933.59920898 -326.32080078 932.77294922 C-334.83519445 920.83681744 -342.91828768 908.70012333 -350.5859375 896.203125 C-350.98087402 895.56101074 -351.37581055 894.91889648 -351.78271484 894.25732422 C-354.43257831 889.93422518 -357.02207812 885.57769045 -359.5859375 881.203125 C-360.02341309 880.4596582 -360.46088867 879.71619141 -360.91162109 878.95019531 C-403.80748269 805.80209069 -430.6649671 725.35870284 -453.3359375 559.453125 C-453.39510345 558.64959595 -453.45426941 557.84606689 -453.51522827 557.01818848 C-455.22706353 533.35118802 -455.79719876 509.70258128 -455.82617188 485.98071289 C-455.83053204 482.94022465 -455.84436805 479.90002408 -455.8671875 476.85961914 C-456.07651741 448.30928381 -454.77501986 419.82485831 -449.8984375 391.640625 C-449.77410339 390.89815521 -449.64976929 390.15568542 -449.52166748 389.39071655 C-441.97225321 344.44809132 -428.39250971 301.28158767 -408.5859375 260.203125 C-408.14282227 259.2745166 -407.69970703 258.3459082 -407.24316406 257.38916016 C-397.32231872 236.67423218 -385.69322719 217.0569397 -372.5859375 198.203125 C-372.07063477 197.4611084 -371.55533203 196.7190918 -371.02441406 195.95458984 C-361.13162372 181.79724588 -350.4485734 168.28594715 -338.74609375 155.57421875 C-337.55479072 154.26658595 -336.37141554 152.95100204 -335.22509766 151.60375977 C-329.96127035 145.43901126 -324.28256594 139.7136337 -318.55371094 133.9855957 C-316.84799152 132.27769444 -315.15044723 130.56194455 -313.453125 128.84570312 C-307.53960463 122.90216598 -301.54320107 117.32807382 -294.97607422 112.10522461 C-292.9610752 110.5016641 -291.00915053 108.86310227 -289.08203125 107.15625 C-280.04964704 99.15866065 -270.49762778 92.07180488 -260.5859375 85.203125 C-259.77237793 84.63835449 -258.95881836 84.07358398 -258.12060547 83.49169922 C-193.91509568 39.19177299 -120.30196253 12.2126992 -42.9609375 2.890625 C-42.28559967 2.80922272 -41.61026184 2.72782043 -40.91445923 2.64395142 C-27.28879631 1.02586088 -13.72674165 0.0520557 0 0 Z " fill="#FF0606" transform="translate(565.5859375,188.796875)"/>
</svg>
